<?xml version="1.0" encoding="utf-8"?>
<!-- Generator: Adobe Illustrator 25.2.3, SVG Export Plug-In . SVG Version: 6.00 Build 0)  -->
<svg version="1.0" id="Layer_1" xmlns="http://www.w3.org/2000/svg" xmlns:xlink="http://www.w3.org/1999/xlink" x="0px" y="0px"
	 viewBox="0 0 1920 1080" enable-background="new 0 0 1920 1080" xml:space="preserve">
<g>
	<path fill="#FDFFE8" d="M747.3,605.4c19.9,0,22.8-4.1,22.8-28.1v-78c0-24-2.9-27.8-22.8-27.8v-5h63.4c33.4,0,51.6,18.2,51.6,40.6
		c0,20.9-15.6,37.4-42.7,40.3l23.5,27.6c14.2,16.8,30.2,28.8,44.6,30.5v5h-39.6l-47.5-63.1h-11.3v30c0,24,2.9,28.1,22.8,28.1v5
		h-64.8V605.4z M810.4,538.7c20.9,0,30.5-14.2,30.5-31.7c0-17.3-9.6-31.7-30.5-31.7h-21.1v63.4H810.4z"/>
	<path fill="#FDFFE8" d="M895,593.4c0-20.4,23.8-29.3,51.1-34.1c0-18-2.4-25.2-16.1-25.2c-5.5,0-13.7,3.8-13.7,11.5
		c0,4.8-3.6,8.4-8.2,8.4c-4.8,0-8.4-3.6-8.4-8.4c0-11.5,15.1-19.2,30.5-19.2c23.3,0,32.9,9.8,32.9,32.6v36.2c0,6,1.9,9.4,5.5,9.4
		c2.4,0,5-1.9,6.7-3.6l3.4,4.6c-4.6,4.8-10.6,7.4-15.8,7.4c-9.4,0-15.1-5.3-16.3-13.9c-11.8,10.6-20.4,14.4-30,14.4
		C904.9,613.6,895,606.2,895,593.4z M946.1,591.3v-24.5c-22.8,5.3-33.1,13.2-33.1,23.8c0,7.7,5.3,12.2,11.3,12.2
		C929.3,602.8,935.1,601.1,946.1,591.3z"/>
	<path fill="#FDFFE8" d="M986.9,605.4c15.8,0,19-4.1,19-28.1v-12c0-24-3.1-27.8-19-27.8v-5l31.9-6c1.2,2.4,3.4,12.2,4.1,17.3
		c6.5-8.2,17.5-17.3,33.4-17.3c21.6,0,31.2,15.4,31.2,35.8v15.1c0,24,2.9,28.1,19,28.1v5h-55v-5c15.6,0,19-4.1,19-28.1v-13.9
		c0-15.6-5.5-25.7-19.9-25.7c-13.2,0-27.6,10.8-27.6,24v15.6c0,24.7,1.9,28.1,16.8,28.1v5h-52.8V605.4z"/>
	<path fill="#FDFFE8" d="M1109.6,570.4c0-24.2,19-43.9,41.8-43.9c12,0,22.1,5.3,29.3,14.2v-39.1c0-24-2.9-28.1-19-28.1v-5l36-6
		v115.2c0,22.8,3.8,25.7,16.6,25.7v4.6l-29.5,6c-1.2-2.4-3.1-10.1-3.8-13.9c-6.7,8.4-16.3,14.6-29.5,14.6
		C1128.6,614.6,1109.6,594.6,1109.6,570.4z M1180.6,586v-31c-4.3-11.3-13.4-19-24.2-19c-18.7,0-27.4,15.1-27.4,34.3
		s8.6,34.6,27.4,34.6C1167.2,605,1176.3,597.3,1180.6,586z"/>
	<path fill="#FDFFE8" d="M1223.8,667.4c0-9.4,10.8-9.4,18.2-28.1l12-30l-27.6-59.8c-5-10.8-8.6-14.2-16.1-14.2v-4.8h42.5v4.8
		c-10.6,0-13,2.4-7.7,14.2l17.5,38.4l15.4-38.4c4.3-11,2.9-14.2-7-14.2v-4.8h33.6v4.8c-7.4,0-12.7,3.4-17,14.2l-46.8,116.9
		c-1.9,4.8-5,8.9-8.9,8.9C1228.6,675.3,1223.8,673.4,1223.8,667.4z"/>
</g>
<circle fill="none" stroke="#FDFFE8" stroke-width="20" stroke-miterlimit="10" cx="1000.4" cy="559.2" r="421.9"/>
<text transform="matrix(1 0 0 1 763.064 764.7702)" fill="#FDFFE8" font-family="'BebasNeuePro-Thin'" font-size="190px" letter-spacing="-4">Makes TV</text>
</svg>
