<?xml version="1.0" encoding="UTF-8" standalone="no"?>
<!-- Created with Inkscape (http://www.inkscape.org/) -->

<svg
   version="1.1"
   id="svg1"
   width="1000"
   height="464.32925"
   viewBox="0 0 1000 464.32925"
   xml:space="preserve"
   xmlns="http://www.w3.org/2000/svg"
   xmlns:svg="http://www.w3.org/2000/svg"><defs
     id="defs1"><clipPath
       clipPathUnits="userSpaceOnUse"
       id="clipPath169"><path
         d="m 38.762,309.951 h 18.894 v 17.893 H 38.762 Z"
         transform="translate(-42.397101,-318.89711)"
         id="path169" /></clipPath><clipPath
       clipPathUnits="userSpaceOnUse"
       id="clipPath171"><path
         d="m 38.762,309.951 h 18.894 v 17.893 H 38.762 Z"
         transform="translate(-53.722402,-322.11311)"
         id="path171" /></clipPath><mask
       maskUnits="userSpaceOnUse"
       id="cnn-stripe-mask"><rect
         width="1000"
         height="464.32925"
         x="0"
         y="0"
         fill="#ffffff"
         id="cnn-mask-base" /><path
         d="M 924.2508,1.7332359 V 376.99234 c 0,7.315 -4.6148,11.6802 -9.221,12.9324 -5.8583,1.5927 -13.0153,-1.1486 -18.3757,-10.3885 L 720.1445,75.287236 c -9.6446,-16.6243 -25.3941,-23.056 -39.6196,-19.1848 -13.5795,3.6954 -23.1152,16.0873 -23.1152,31.2286 V 376.99234 c 0,7.272 -4.5707,11.6682 -9.221,12.9324 -6.0477,1.6442 -13.1452,-1.3715 -18.3762,-10.3885 L 453.3038,75.287236 c -9.7464,-16.8001 -25.6898,-23.0199 -39.7825,-19.1848 -13.5795,3.6954 -23.2127,16.0873 -23.2127,31.2286 V 370.67804 c 0,7.7523 -7.4089,16.0445 -16.083,16.0445 H 230.3833 c -42.544,0 -81.1473,-17.2903 -109.151,-45.237 -28.0036,-27.9467 -45.4076,-66.5499 -45.4076,-109.3158 0,-42.736 17.4075,-81.3418 45.4149,-109.2958 28.0075,-27.954104 66.6148,-45.256504 109.1437,-45.256504 h 74.6942 v -18.9775 h -74.6942 c -47.6772,0 -91.0942,19.404 -122.5589,50.813804 -31.4647,31.4099 -50.9772,74.8257 -50.9772,122.716 0,47.9153 19.5052,91.3332 50.9674,122.737 31.4623,31.4037 74.8817,50.7933 122.5687,50.7933 h 143.8423 c 19.0623,0 35.0605,-16.6715 35.0605,-35.022 V 87.331036 c 0,-6.8401 4.1378,-11.5342 9.2186,-12.9168 6.7395,-1.834 13.6817,2.29 18.3645,10.3617 L 613.3974,389.05954 c 9.7146,16.7452 25.5761,23.0367 39.7698,19.178 13.0807,-3.5562 23.22,-15.5865 23.22,-31.2452 V 87.331036 c 0,-6.8401 4.0403,-11.5342 9.121,-12.9168 6.8115,-1.8536 13.63,2.4815 18.2016,10.3617 L 880.238,389.05954 c 9.5184,16.407 25.2524,23.1247 39.7698,19.178 13.1773,-3.5824 23.2201,-15.7005 23.2201,-31.2452 V 1.7332359 Z"
         fill="#000000"
         id="cnn-stripe-cutout" /></mask></defs><path
     id="path1"
     mask="url(#cnn-stripe-mask)"
     style="fill:#cc0000;fill-opacity:1;stroke-width:21.8429"
     d="M 416.8689,0.00923586 C 372.7267,-0.64806414 333.5492,34.650736 333.5453,85.712336 V 314.25314 c 0.028,8.3112 -6.2229,15.5542 -15.3183,15.5651 h -87.2341 c -53.9258,0 -97.6538,-43.7228 -97.6538,-97.6529 0,-53.9322 43.7286,-97.6499 97.6538,-97.6499 h 74.0846 V 1.7332359 H 230.436 C 103.1726,1.7332359 0,104.90024 0,232.16974 c 0,127.2588 103.1726,230.4253 230.436,230.4253 h 145.2356 c 55.2014,0.039 90.7046,-32.3122 90.6456,-91.9804 v -131.4312 c 0,0 92.6269,159.5931 96.8906,166.8209 58.812,99.8984 169.951,58.6109 169.951,-27.3889 v -139.432 c 0,0 92.6375,159.5931 96.8838,166.8209 58.8098,99.8984 169.9464,58.6109 169.9574,-27.3889 V 1.7332359 H 867.228 V 225.15174 c 0,0 -92.6378,-159.599304 -96.895,-166.826904 -58.8141,-99.898 -169.9461,-58.61090014 -169.9461,27.3875 V 225.15174 c 0,0 -92.6383,-159.599304 -96.8955,-166.826904 C 479.5982,17.741336 447.0715,0.45893586 416.8689,0.00923586 Z" /><path
     id="path7"
     style="baseline-shift:baseline;display:inline;overflow:visible;vector-effect:none;fill:#ffffff;fill-opacity:0;stroke:none;stroke-width:0.249704;paint-order:markers stroke fill;enable-background:accumulate;stop-color:#000000"
     d="M 924.2508,1.7332359 V 376.99234 c 0,7.315 -4.6148,11.6802 -9.221,12.9324 -5.8583,1.5927 -13.0153,-1.1486 -18.3757,-10.3885 L 720.1445,75.287236 c -9.6446,-16.6243 -25.3941,-23.056 -39.6196,-19.1848 -13.5795,3.6954 -23.1152,16.0873 -23.1152,31.2286 V 376.99234 c 0,7.272 -4.5707,11.6682 -9.221,12.9324 -6.0477,1.6442 -13.1452,-1.3715 -18.3762,-10.3885 L 453.3038,75.287236 c -9.7464,-16.8001 -25.6898,-23.0199 -39.7825,-19.1848 -13.5795,3.6954 -23.2127,16.0873 -23.2127,31.2286 V 370.67804 c 0,7.7523 -7.4089,16.0445 -16.083,16.0445 H 230.3833 c -42.544,0 -81.1473,-17.2903 -109.151,-45.237 -28.0036,-27.9467 -45.4076,-66.5499 -45.4076,-109.3158 0,-42.736 17.4075,-81.3418 45.4149,-109.2958 28.0075,-27.954104 66.6148,-45.256504 109.1437,-45.256504 h 74.6942 v -18.9775 h -74.6942 c -47.6772,0 -91.0942,19.404 -122.5589,50.813804 -31.4647,31.4099 -50.9772,74.8257 -50.9772,122.716 0,47.9153 19.5052,91.3332 50.9674,122.737 31.4623,31.4037 74.8817,50.7933 122.5687,50.7933 h 143.8423 c 19.0623,0 35.0605,-16.6715 35.0605,-35.022 V 87.331036 c 0,-6.8401 4.1378,-11.5342 9.2186,-12.9168 6.7395,-1.834 13.6817,2.29 18.3645,10.3617 L 613.3974,389.05954 c 9.7146,16.7452 25.5761,23.0367 39.7698,19.178 13.0807,-3.5562 23.22,-15.5865 23.22,-31.2452 V 87.331036 c 0,-6.8401 4.0403,-11.5342 9.121,-12.9168 6.8115,-1.8536 13.63,2.4815 18.2016,10.3617 L 880.238,389.05954 c 9.5184,16.407 25.2524,23.1247 39.7698,19.178 13.1773,-3.5824 23.2201,-15.7005 23.2201,-31.2452 V 1.7332359 Z" /></svg>
